<svg width="248" height="156" viewBox="0 0 248 156"><circle cx="124.0" cy="78.0" r="44.0" fill="none" stroke="#e6e6e6" stroke-width="0.8"/><circle cx="124.0" cy="78.0" r="22.0" fill="none" stroke="#aab" stroke-width="0.7" stroke-dasharray="2,2"/><line x1="124.0" y1="78.0" x2="124.0" y2="34.0" stroke="#e0e0e0" stroke-width="0.6"/><line x1="124.0" y1="78.0" x2="155.1" y2="46.9" stroke="#e0e0e0" stroke-width="0.6"/><line x1="124.0" y1="78.0" x2="168.0" y2="78.0" stroke="#e0e0e0" stroke-width="0.6"/><line x1="124.0" y1="78.0" x2="155.1" y2="109.1" stroke="#e0e0e0" stroke-width="0.6"/><line x1="124.0" y1="78.0" x2="124.0" y2="122.0" stroke="#e0e0e0" stroke-width="0.6"/><line x1="124.0" y1="78.0" x2="92.9" y2="109.1" stroke="#e0e0e0" stroke-width="0.6"/><line x1="124.0" y1="78.0" x2="80.0" y2="78.0" stroke="#e0e0e0" stroke-width="0.6"/><line x1="124.0" y1="78.0" x2="92.9" y2="46.9" stroke="#e0e0e0" stroke-width="0.6"/><polygon points="124.0,42.8 130.2,71.8 159.2,78.0 139.6,93.6 124.0,108.8 117.8,84.2 115.2,78.0 99.1,53.1" fill="rgba(52,96,127,0.33)" stroke="#34607f" stroke-width="1.3"/><text x="124.0" y="21.2" font-size="7" fill="#555" text-anchor="middle" dominant-baseline="middle">Finds the core in</text><text x="124.0" y="28.8" font-size="7" fill="#555" text-anchor="middle" dominant-baseline="middle">strong thermals</text><text x="161.5" y="36.7" font-size="7" fill="#555" text-anchor="start" dominant-baseline="middle">Leaves weak</text><text x="161.5" y="44.3" font-size="7" fill="#555" text-anchor="start" dominant-baseline="middle">thermals</text><text x="177.0" y="74.2" font-size="7" fill="#555" text-anchor="start" dominant-baseline="middle">Glides</text><text x="177.0" y="81.8" font-size="7" fill="#555" text-anchor="start" dominant-baseline="middle">fast</text><text x="161.5" y="111.7" font-size="7" fill="#555" text-anchor="start" dominant-baseline="middle">Mean glide</text><text x="161.5" y="119.3" font-size="7" fill="#555" text-anchor="start" dominant-baseline="middle">ratio</text><text x="124.0" y="127.2" font-size="7" fill="#555" text-anchor="middle" dominant-baseline="middle">Finds the core</text><text x="124.0" y="134.8" font-size="7" fill="#555" text-anchor="middle" dominant-baseline="middle">in weak thermals</text><text x="86.5" y="111.7" font-size="7" fill="#555" text-anchor="end" dominant-baseline="middle">Flies</text><text x="86.5" y="119.3" font-size="7" fill="#555" text-anchor="end" dominant-baseline="middle">far</text><text x="71.0" y="74.2" font-size="7" fill="#555" text-anchor="end" dominant-baseline="middle">Few turns</text><text x="71.0" y="81.8" font-size="7" fill="#555" text-anchor="end" dominant-baseline="middle">per km</text><text x="86.5" y="36.7" font-size="7" fill="#555" text-anchor="end" dominant-baseline="middle">Climbs without</text><text x="86.5" y="44.3" font-size="7" fill="#555" text-anchor="end" dominant-baseline="middle">circling</text></svg>